PathFileType	4	(X/Y/Z)	pose_F01_0-90.trc
DataRate	CameraRate	NumFrames	NumMarkers	Units	OrigDataRate	OrigDataStartFrame	OrigNumFrames
30	30	10	21	m	30	56	90
Frame#	Time	CHip			RHip			RKnee			RAnkle			RBigToe			RSmallToe			RHeel			LHip			LKnee			LAnkle			LBigToe			LSmallToe			LHeel			Neck			Nose			RShoulder			RElbow			RWrist			LShoulder			LElbow			LWrist			
		X1	Y1	Z1	X2	Y2	Z2	X3	Y3	Z3	X4	Y4	Z4	X5	Y5	Z5	X6	Y6	Z6	X7	Y7	Z7	X8	Y8	Z8	X9	Y9	Z9	X10	Y10	Z10	X11	Y11	Z11	X12	Y12	Z12	X13	Y13	Z13	X14	Y14	Z14	X15	Y15	Z15	X16	Y16	Z16	X17	Y17	Z17	X18	Y18	Z18	X19	Y19	Z19	X20	Y20	Z20	X21	Y21	Z21	
56	1.8666666666666667	-0.23015789246606333	1.823916859803576	-0.5455097252042465	-0.2471485286073432	1.822619953336466	-0.48309599028226347	-0.2063301653145481	1.7124903933133302	-0.5561805418910446										-0.1912320646874766	1.594357637854458	-0.5298604523236514	-0.21157311536049825	1.829060338751104	-0.604680702783337	-0.19859126999452692	1.7055615192686813	-0.6347358884112386	-0.17475561595111141	1.59850585766361	-0.6167079144961896	-0.173231611400494	1.5662130918340758	-0.6753499452735964	-0.1666512307867808	1.5582042277313697	-0.686900797143896	-0.16032491407832009	1.5990029779404253	-0.6103919394482777	-0.22334486774487364	1.9874576437061324	-0.5717191911576249	-0.23025295726251022	2.052555421553874	-0.6369003632791308	-0.246483907662088	1.9878693443945101	-0.47939914164599123	-0.275506732827608	1.8981152301580093	-0.43489795842422674	-0.286598719130366	1.887695397020572	-0.47976557696770394	-0.19797050651167775	1.9880131205224938	-0.6564971946349505	-0.18389098977743662	1.9194997017606623	-0.7046141330154724	-1.1305905376634233	1.8020721567587736	0.1349540594173279
57	1.9	-0.23504610462127096	1.8242146949081186	-0.5381507956232447	-0.2510565513383789	1.8223439437996136	-0.47775016434734974	-0.2063301653145481	1.7124903933133302	-0.5561805418910446										-0.1912320646874766	1.594357637854458	-0.5298604523236514	-0.21484766784704631	1.831460201585235	-0.5972520788472263	-0.20301579493299507	1.704024952128887	-0.6278220450901907	-0.187302510917099	1.5895023666052617	-0.602814776474108	-0.17957311170922413	1.5625898294098932	-0.6689885203212915	-0.1924345528477523	1.5493046382425488	-0.6613900827611133	-0.16032491407832009	1.5990029779404253	-0.6103919394482777	-0.23076920517559998	1.985363718764948	-0.5592436279483235	-0.2345172602054874	2.051900873570023	-0.6317963260977821	-0.2542820488961438	1.9850122582319238	-0.4694726879755293	-0.28470362820819395	1.895031840201289	-0.41995531898245453	-0.29745928637980923	1.8813944733659518	-0.49134958072106744	-0.20132990745780002	1.9893562150208286	-0.6486431369584323	-0.19046385152744666	1.9185004044702516	-0.6973564536976319	-1.1043634216031222	1.7954356947143952	0.08009020139168081
58	1.9333333333333333	-0.23993431677647856	1.8245125300126612	-0.530791866042243	-0.25496457406941453	1.8220679342627615	-0.47240433841243595	-0.2063301653145481	1.7124903933133302	-0.5561805418910446										-0.1912320646874766	1.594357637854458	-0.5298604523236514	-0.22147146323383204	1.8296477152095936	-0.590351353073967	-0.20744031987146322	1.7024883849890926	-0.6209082017691426	-0.19984940588308664	1.5804988755469136	-0.5889216384520265	-0.18591461201795423	1.558966566985711	-0.6626270953689866	-0.21821787490872382	1.540405048753728	-0.6358793683783307	-0.16032491407832009	1.5990029779404253	-0.6103919394482777	-0.23684899579825203	1.985889446355962	-0.5524637198893115	-0.2408257006981873	2.0510635240389856	-0.6251761114127438	-0.259222438479816	1.9844277853242278	-0.4598404481383013	-0.28158079102361366	1.8990093111610067	-0.41188665533225977	-0.3083198536292525	1.8750935497113317	-0.5029335844744309	-0.20893224279498965	1.9902529653462928	-0.6364010029794874	-0.1962653013209361	1.9209844980325155	-0.6876174848850283	-0.18664848334900436	1.8930766221503956	-0.7949812446653577
59	1.9666666666666666	-0.24208897354289446	1.8203888858434794	-0.5282491750019448	-0.25887259680045016	1.8217919247259091	-0.46705851247752217	-0.2063301653145481	1.7124903933133302	-0.5561805418910446										-0.1912320646874766	1.594357637854458	-0.5298604523236514	-0.22603519718620102	1.825647155105443	-0.5852483419538784	-0.21186484480993134	1.7009518178492984	-0.6139943584480947	-0.21239630084907424	1.5714953844885653	-0.5750285004299449	-0.19225611232668435	1.5553433045615286	-0.6562656704166817	-0.22981044549264998	1.5357187339394056	-0.6188037218986633	-0.16032491407832009	1.5990029779404253	-0.6103919394482777	-0.2400076087979123	1.9854287276939684	-0.5449073723631469	-0.24634600437741294	2.049215125855804	-0.61573709282934	-0.2650317051780355	1.9847090614387186	-0.45303996186985185	-0.27845795383903343	1.9029867821207243	-0.40381799168206495	-0.29850846732764713	1.872204945467984	-0.5046023270040053	-0.21224260383819793	1.9885168363426606	-0.6284255441188309	-0.1942579969270492	1.9199410104518762	-0.669425439867281	-0.18616437077593193	1.896182451483515	-0.7803562670035311
60	2.0	-0.24670323329361032	1.8227099798845952	-0.5239155772313886	-0.26278061953148585	1.8215159151890568	-0.46171268654260844	-0.2063301653145481	1.7124903933133302	-0.5561805418910446										-0.1912320646874766	1.594357637854458	-0.5298604523236514	-0.23148754407917946	1.8272261660456277	-0.5837817326817718	-0.21628936974839946	1.6994152507095042	-0.6070805151270466	-0.22494319581506184	1.5624918934302172	-0.5611353624078633	-0.19859761263541448	1.5517200421373463	-0.6499042454643769	-0.22990246702472955	1.533675370470611	-0.6186213502907932	-0.16032491407832009	1.5990029779404253	-0.6103919394482777	-0.24019489474046415	1.986824934188018	-0.5366489213483743	-0.24856099645874347	2.0500776610203344	-0.6138153614619675	-0.2660727548155464	1.9835783959856705	-0.44776657372138345	-0.2784700003471582	1.9024084001220969	-0.3954494771157828	-0.2896141308900088	1.8806749343480924	-0.4878644553956102	-0.21259273287891525	1.9894699694390776	-0.6201780253624799	-0.19690571365131035	1.9192058546358328	-0.6585465839328355	-0.18237365648143222	1.8916464931405519	-0.7647294743669044
61	2.033333333333333	-0.2485601484665291	1.8236957126558537	-0.5217681041961922	-0.2616606263881312	1.8228404545033412	-0.4585006411922037	-0.2063301653145481	1.7124903933133302	-0.5561805418910446										-0.1912320646874766	1.594357637854458	-0.5298604523236514	-0.23029734178719358	1.82936058937812	-0.5809742985991984	-0.2207138946868676	1.69787868356971	-0.6001666718059986	-0.2252225016357619	1.5631342047935757	-0.5609882986769498	-0.2049391129441446	1.548096779713164	-0.643542820512072	-0.23096454937567937	1.5342020460918167	-0.6217179925290781	-0.16032491407832009	1.5990029779404253	-0.6103919394482777	-0.244183657205358	1.9889906276875544	-0.5240967638438639	-0.24963010941053046	2.0529155233556633	-0.608921214283402	-0.2670331364134733	1.9834512090217364	-0.4423238763185031	-0.28024437944607045	1.8996919752061157	-0.39305167075225067	-0.29756988859544664	1.8835732579745286	-0.5056953355331768	-0.21396151727869087	1.993529665268448	-0.6158442859246064	-0.20112832233103403	1.921145664279316	-0.6541781675093802	-0.18979254345439983	1.8950231345927915	-0.7496149671836656
62	2.066666666666667	-0.2505568921497175	1.823330050205935	-0.5195277297836872	-0.2637114781372938	1.8205705468642674	-0.456108763139954	-0.2063301653145481	1.7124903933133302	-0.5561805418910446										-0.1912320646874766	1.594357637854458	-0.5298604523236514	-0.23255991801415507	1.828679064768078	-0.5786749005059407	-0.22513841962533576	1.6963421164299157	-0.5932528284849506	-0.22550180745646198	1.5637765161569344	-0.5608412349460361	-0.21128061325287473	1.5444735172889814	-0.6371813955597672	-0.23063693650074094	1.535317823746034	-0.6222893063764069	-0.16032491407832009	1.5990029779404253	-0.6103919394482777	-0.2433501530941727	1.9889489400601825	-0.5208984805683519	-0.248947521070027	2.055127560335503	-0.5983752179215635	-0.2700262607261633	1.9832836045034552	-0.44330013408379587	-0.2821883318392646	1.8999213289371455	-0.3908824699855983	-0.30316148207784566	1.8900756821569868	-0.5310754341520894	-0.2180877017259412	1.9933980722070632	-0.6113219739513844	-0.20077946608725494	1.9235484463047088	-0.6425384324142271	-0.19370801639966756	1.896028222845967	-0.721653477998184
63	2.1	-0.25246566102035556	1.8221410824927275	-0.5172002109173347	-0.2653534562805966	1.819659255221804	-0.4540232504599532	-0.2063301653145481	1.7124903933133302	-0.5561805418910446										-0.1912320646874766	1.594357637854458	-0.5298604523236514	-0.23246177048510536	1.8293995586575944	-0.5787602197242339	-0.22956294456380388	1.6948055492901213	-0.5863389851639026	-0.22578111327716205	1.5644188275202928	-0.5606941712151225	-0.21762211356160485	1.540850254864799	-0.6308199706074623	-0.22956932481537468	1.5345783035406089	-0.6191694919057099	-0.16032491407832009	1.5990029779404253	-0.6103919394482777	-0.2472385427221819	1.9887761738982999	-0.5164910613119832	-0.25217364475029913	2.05553627444154	-0.5914577343096346	-0.2718178655133069	1.9829619386997315	-0.43272947342000523	-0.28633863792344705	1.8945013084291937	-0.3859638906623726	-0.30239355684341446	1.8910709986964493	-0.5372760641447034	-0.21930579058817593	1.996009436291027	-0.6063436332864428	-0.20124375223578947	1.9268577474172108	-0.6255481742699937	-0.19893318310265257	1.895743216111448	-0.6884736971285645
64	2.1333333333333333	-0.25162263128465867	1.820245906092644	-0.5136909821205162	-0.26335185539359074	1.816703781802072	-0.44697603440859335	-0.2063301653145481	1.7124903933133302	-0.5561805418910446										-0.1912320646874766	1.594357637854458	-0.5298604523236514	-0.2324569358730415	1.8265890734403119	-0.5782952862712123	-0.233987469502272	1.693268982150327	-0.5794251418428547	-0.2260604190978621	1.5650611388836513	-0.5605471074842089	-0.22396361387033498	1.5372269924406168	-0.6244585456551575	-0.2294688064970962	1.534105853359886	-0.619173708019347	-0.16032491407832009	1.5990029779404253	-0.6103919394482777	-0.24640383808951705	1.9873783785955725	-0.5129077708390949	-0.2552137953920451	2.0572750729901537	-0.583779602750774	-1.8129206594896383	1.890989330751166	1.2804651532780185	-0.28861813372642786	1.8969976272569797	-0.40091952027183964	-0.2972667420015026	1.889108447084625	-0.5470090582618629	-0.223517757975783	1.994042034625419	-0.6014467227348566	-0.20102345440079913	1.9387548672660795	-0.6165990912466986	-0.2096290751118464	1.9092676239258413	-0.668508924168908
65	2.1666666666666665	-0.2525396367190697	1.8190724996023768	-0.5168155934492457	-0.26434780611162706	1.8159249390701537	-0.4502664971264618	-0.2063301653145481	1.7124903933133302	-0.5561805418910446										-0.1912320646874766	1.594357637854458	-0.5298604523236514	-0.2344397872567689	1.8256722226891273	-0.5762487237254926	-0.23841199444074015	1.6917324150105328	-0.5725112985218066	-0.22633972491856216	1.5657034502470097	-0.5604000437532953	-0.23030511417906507	1.5336037300164342	-0.6180971207028525	-0.23049863913107033	1.534657305678712	-0.6222879828251777	-0.16032491407832009	1.5990029779404253	-0.6103919394482777	-0.24852306340071226	1.9858527048272894	-0.5107530329977127	-0.2582585946048927	2.0582854554235515	-0.5763842703186188	-1.8134284837053993	1.8910087142864778	1.2811019105350512	-0.2933702597038271	1.89577270956553	-0.39117426124259713	-0.28180467424894723	1.8922071896549648	-0.5422944224152382	-0.22556341311678038	1.9944764828686292	-0.5992777533431385	-0.20030053262493352	1.9365148827102103	-0.6220024485623615	-0.22329035187758434	1.909380441678442	-0.6462879785060922
